<svg width="651" height="484" viewBox="0 0 651 484" fill="none" xmlns="http://www.w3.org/2000/svg">
<path d="M78.08 358.72C73.6 356.267 69.0133 354.24 64.32 352.64C59.7333 351.04 55.4133 350.24 51.36 350.24C46.3467 350.24 42.4 351.253 39.52 353.28C36.64 355.307 35.2 358.347 35.2 362.4C35.2 365.173 36.2667 367.68 38.4 369.92C40.64 372.053 43.4667 373.973 46.88 375.68C50.4 377.387 54.0267 378.933 57.76 380.32C61.1733 381.6 64.5333 383.147 67.84 384.96C71.2533 386.667 74.2933 388.853 76.96 391.52C79.6267 394.08 81.76 397.333 83.36 401.28C84.96 405.12 85.76 409.867 85.76 415.52C85.76 421.493 84.2133 427.04 81.12 432.16C78.0267 437.28 73.4933 441.44 67.52 444.64C61.5467 447.733 54.1867 449.28 45.44 449.28C40.96 449.28 36.3733 448.853 31.68 448C27.0933 447.04 22.56 445.653 18.08 443.84C13.6 441.92 9.28 439.52 5.12 436.64L15.36 418.56C18.1333 420.587 21.12 422.4 24.32 424C27.6267 425.493 30.9333 426.667 34.24 427.52C37.5467 428.373 40.5867 428.8 43.36 428.8C46.1333 428.8 48.9067 428.427 51.68 427.68C54.56 426.827 56.9067 425.44 58.72 423.52C60.64 421.6 61.6 418.933 61.6 415.52C61.6 413.173 60.8 411.04 59.2 409.12C57.7067 407.2 55.6267 405.44 52.96 403.84C50.4 402.24 47.5733 400.853 44.48 399.68C40.8533 398.293 37.12 396.693 33.28 394.88C29.44 393.067 25.8133 390.88 22.4 388.32C19.0933 385.653 16.3733 382.4 14.24 378.56C12.2133 374.613 11.2 369.813 11.2 364.16C11.2 357.333 12.6933 351.413 15.68 346.4C18.7733 341.387 23.0933 337.44 28.64 334.56C34.1867 331.573 40.5867 329.92 47.84 329.6C57.3333 329.6 65.0133 330.72 70.88 332.96C76.8533 335.2 82.1867 337.867 86.88 340.96L78.08 358.72ZM127.361 451.36C121.068 451.36 115.788 449.44 111.521 445.6C107.255 441.653 105.015 436.587 104.801 430.4V378.08H127.201V422.08C127.415 425.173 128.215 427.68 129.601 429.6C130.988 431.413 133.335 432.32 136.641 432.32C139.948 432.32 142.775 431.2 145.121 428.96C147.575 426.72 149.441 423.68 150.721 419.84C152.108 415.893 152.801 411.467 152.801 406.56V378.08H175.201V448H154.881L153.121 435.2L153.441 436.64C151.841 439.52 149.815 442.08 147.361 444.32C144.908 446.56 141.975 448.267 138.561 449.44C135.255 450.72 131.521 451.36 127.361 451.36ZM218.559 378.08L220.319 390.4L219.999 389.44C222.772 384.747 226.239 381.12 230.399 378.56C234.559 375.893 239.572 374.56 245.439 374.56C249.279 374.56 252.639 375.093 255.519 376.16C258.505 377.227 261.012 378.827 263.039 380.96C265.065 382.987 266.452 385.653 267.199 388.96L266.399 389.12C269.385 384.747 272.959 381.227 277.119 378.56C281.385 375.893 285.812 374.56 290.399 374.56C297.332 374.56 302.825 376.533 306.879 380.48C311.039 384.32 313.172 389.333 313.279 395.52V448H291.039V404.8C290.932 401.707 290.452 399.2 289.599 397.28C288.745 395.253 286.772 394.133 283.679 393.92C280.052 393.92 276.959 395.2 274.399 397.76C271.945 400.213 270.079 403.413 268.799 407.36C267.625 411.2 267.039 415.2 267.039 419.36V448H244.639V404.8C244.532 401.707 243.945 399.2 242.879 397.28C241.919 395.253 239.892 394.133 236.799 393.92C233.279 393.92 230.292 395.2 227.839 397.76C225.492 400.213 223.679 403.36 222.399 407.2C221.225 411.04 220.639 414.987 220.639 419.04V448H198.239V378.08H218.559ZM356.684 378.08L358.444 390.4L358.124 389.44C360.897 384.747 364.364 381.12 368.524 378.56C372.684 375.893 377.697 374.56 383.564 374.56C387.404 374.56 390.764 375.093 393.644 376.16C396.63 377.227 399.137 378.827 401.164 380.96C403.19 382.987 404.577 385.653 405.324 388.96L404.524 389.12C407.51 384.747 411.084 381.227 415.244 378.56C419.51 375.893 423.937 374.56 428.524 374.56C435.457 374.56 440.95 376.533 445.004 380.48C449.164 384.32 451.297 389.333 451.404 395.52V448H429.164V404.8C429.057 401.707 428.577 399.2 427.724 397.28C426.87 395.253 424.897 394.133 421.804 393.92C418.177 393.92 415.084 395.2 412.524 397.76C410.07 400.213 408.204 403.413 406.924 407.36C405.75 411.2 405.164 415.2 405.164 419.36V448H382.764V404.8C382.657 401.707 382.07 399.2 381.004 397.28C380.044 395.253 378.017 394.133 374.924 393.92C371.404 393.92 368.417 395.2 365.964 397.76C363.617 400.213 361.804 403.36 360.524 407.2C359.35 411.04 358.764 414.987 358.764 419.04V448H336.364V378.08H356.684ZM469.049 412.16C469.049 405.013 470.702 398.613 474.009 392.96C477.422 387.307 482.169 382.88 488.249 379.68C494.329 376.373 501.315 374.72 509.209 374.72C517.209 374.72 524.142 376.373 530.009 379.68C535.875 382.88 540.355 387.307 543.449 392.96C546.649 398.613 548.249 405.013 548.249 412.16C548.249 419.307 546.649 425.76 543.449 431.52C540.355 437.173 535.875 441.653 530.009 444.96C524.142 448.267 517.102 449.92 508.889 449.92C501.209 449.92 494.329 448.427 488.249 445.44C482.275 442.453 477.582 438.133 474.169 432.48C470.755 426.827 469.049 420.053 469.049 412.16ZM491.609 412.32C491.609 415.947 492.355 419.253 493.849 422.24C495.342 425.12 497.369 427.413 499.929 429.12C502.489 430.827 505.369 431.68 508.569 431.68C512.089 431.68 515.129 430.827 517.689 429.12C520.249 427.413 522.222 425.12 523.609 422.24C524.995 419.253 525.689 415.947 525.689 412.32C525.689 408.587 524.995 405.28 523.609 402.4C522.222 399.52 520.249 397.227 517.689 395.52C515.129 393.813 512.089 392.96 508.569 392.96C505.369 392.96 502.489 393.813 499.929 395.52C497.369 397.227 495.342 399.52 493.849 402.4C492.355 405.28 491.609 408.587 491.609 412.32ZM586.215 378.08L587.975 390.56L587.655 389.44C590.108 385.067 593.575 381.547 598.055 378.88C602.535 376.107 608.028 374.72 614.535 374.72C621.148 374.72 626.642 376.693 631.015 380.64C635.495 384.48 637.788 389.493 637.895 395.68V448H615.495V404C615.388 400.907 614.535 398.453 612.935 396.64C611.442 394.72 608.882 393.76 605.255 393.76C601.842 393.76 598.855 394.88 596.295 397.12C593.735 399.36 591.762 402.4 590.375 406.24C588.988 410.08 588.295 414.507 588.295 419.52V448H565.895V378.08H586.215Z" fill="black"/>
<path d="M325 187.5L356.25 218.75L325 250L293.75 218.75L325 187.5ZM278.125 203.125L200 125L231.25 93.7499L309.375 171.875L278.125 203.125ZM278.125 46.875L403.125 171.875L371.875 203.125L246.875 78.1249L278.125 46.875ZM418.75 156.25L340.625 78.1249L371.875 46.875L450 125L418.75 156.25ZM325 62.4999L293.75 31.25L325 0L356.25 31.25L325 62.4999Z" fill="black"/>
</svg>
